<svg width="56" height="56" viewBox="0 0 56 56" fill="none" xmlns="http://www.w3.org/2000/svg">
<path fill-rule="evenodd" clip-rule="evenodd" d="M27.4167 2.9165C26.9526 2.9165 26.5075 3.10088 26.1793 3.42907C25.8511 3.75726 25.6667 4.20238 25.6667 4.6665V16.6248H21.8459L17.6984 12.4773C18.1545 11.3549 18.2083 10.1092 17.8507 8.95162C17.4931 7.79401 16.7462 6.7957 15.7366 6.12599C14.7269 5.45628 13.5167 5.15639 12.3111 5.27718C11.1056 5.39797 9.97896 5.932 9.12224 6.78871C8.26553 7.64543 7.7315 8.77208 7.61071 9.97762C7.48992 11.1832 7.78981 12.3934 8.45952 13.403C9.12923 14.4127 10.1275 15.1596 11.2852 15.5172C12.4428 15.8747 13.6884 15.8209 14.8109 15.3648L19.5569 20.1097C19.9395 20.4926 20.4587 20.7079 21 20.7082H25.6667V25.9582H11.8382C11.367 24.8416 10.5241 23.9224 9.45251 23.3565C8.38088 22.7905 7.14648 22.6126 5.95866 22.853C4.77085 23.0934 3.70273 23.7372 2.93547 24.6753C2.1682 25.6134 1.74902 26.7879 1.74902 27.9998C1.74902 29.2117 2.1682 30.3863 2.93547 31.3244C3.70273 32.2625 4.77085 32.9063 5.95866 33.1467C7.14648 33.3871 8.38088 33.2092 9.45251 32.6432C10.5241 32.0772 11.367 31.1581 11.8382 30.0415H25.6667V36.4582H19.8334C19.292 36.4582 18.7717 36.6728 18.3902 37.0567L13.6442 41.8015C12.5217 41.3454 11.2761 41.2916 10.1185 41.6492C8.96088 42.0067 7.96257 42.7537 7.29286 43.7633C6.62314 44.773 6.32325 45.9832 6.44404 47.1887C6.56483 48.3943 7.09886 49.5209 7.95558 50.3776C8.81229 51.2343 9.93894 51.7684 11.1445 51.8892C12.35 52.01 13.5602 51.7101 14.5699 51.0404C15.5795 50.3706 16.3265 49.3723 16.684 48.2147C17.0416 47.0571 16.9878 45.8115 16.5317 44.689L20.6792 40.5415H25.6667V52.3447C25.6667 52.8088 25.8511 53.2539 26.1793 53.5821C26.5075 53.9103 26.9526 54.0947 27.4167 54.0947H37.3334C37.7975 54.0947 38.2426 53.9103 38.5708 53.5821C38.899 53.2539 39.0834 52.8088 39.0834 52.3447V47.9615L42.4877 48.5367C43.2038 48.6575 43.9372 48.6285 44.6415 48.4514C45.3458 48.2743 46.0057 47.953 46.5795 47.5079C47.1533 47.0627 47.6285 46.5033 47.9751 45.8651C48.3216 45.2269 48.532 44.5237 48.5929 43.8L49.1575 37.0847C50.5791 36.6688 51.9349 36.0546 53.1849 35.26C55.097 34.0233 55.1099 31.6655 54.0914 30.157L49.5192 23.3903C48.6559 11.9395 39.0904 2.9165 27.4167 2.9165Z" fill="url(#paint0_linear_4517_7631)"/>
<defs>
<linearGradient id="paint0_linear_4517_7631" x1="28.2568" y1="2.9165" x2="28.2568" y2="54.0947" gradientUnits="userSpaceOnUse">
<stop offset="0.275591" stop-color="white"/>
<stop offset="1" stop-color="#34A853"/>
</linearGradient>
</defs>
</svg>
