<svg preserveAspectRatio="none" width="100%" height="100%" overflow="visible" style="display: block;" viewBox="0 0 307.694 378.715" fill="none" xmlns="http://www.w3.org/2000/svg">
<g id="Element">
<path id="Rectangle 106" d="M97.659 17.897C99.2238 10.1635 108.782 6.7978 114.84 11.853C133.513 27.4344 167.698 54.4333 195.825 68.171C223.914 81.8898 266.165 92.2511 289.891 97.3986C297.593 99.0695 300.826 108.649 295.704 114.64C279.446 133.656 250.837 169.134 236.847 198.613C224.048 225.583 214.776 265.887 210.107 289.205C208.533 297.064 198.734 300.389 192.692 295.122C174.289 279.079 141.023 251.77 113.213 238.124C85.0944 224.327 42.6139 214.714 18.4806 210.001C10.6214 208.466 7.2253 198.7 12.4467 192.628C28.2683 174.232 55.1611 141.078 68.7568 113.499C82.7843 85.0439 92.7877 41.9716 97.659 17.897Z" fill="var(--fill-0, #D9D9D9)" fill-opacity="0.1"/>
<ellipse id="Ellipse 199" cx="35.5144" cy="343.201" rx="35.5144" ry="35.5145" fill="var(--fill-0, #D9D9D9)" fill-opacity="0.1"/>
</g>
</svg>
