<svg width="147" height="37" viewBox="0 0 147 37" fill="none" xmlns="http://www.w3.org/2000/svg">
<g filter="url(#filter0_iiii_2796_33947)">
<path d="M134.706 35.4805C132.832 35.4805 131.065 35.1271 129.405 34.4203C127.776 33.7135 126.347 32.6686 125.118 31.2857C123.92 29.8721 123.013 28.1511 122.398 26.1228L128.253 23.818C128.683 25.4467 129.436 26.8143 130.512 27.9206C131.587 29.0269 133.001 29.5801 134.752 29.5801C135.613 29.5801 136.427 29.4418 137.196 29.1652C137.964 28.8579 138.578 28.4123 139.039 27.8284C139.531 27.2445 139.777 26.5223 139.777 25.6619C139.777 24.8321 139.577 24.1253 139.178 23.5414C138.778 22.9268 138.102 22.3583 137.149 21.8358C136.228 21.2827 134.968 20.7141 133.37 20.1302L131.341 19.3927C130.45 19.0546 129.543 18.6398 128.622 18.1481C127.73 17.6256 126.901 16.9956 126.132 16.2581C125.395 15.4898 124.795 14.614 124.335 13.6306C123.874 12.6472 123.643 11.5255 123.643 10.2655C123.643 8.54453 124.089 6.9926 124.98 5.6097C125.871 4.19606 127.116 3.07436 128.714 2.24462C130.312 1.41487 132.171 1 134.291 1C136.504 1 138.333 1.38414 139.777 2.15243C141.221 2.88998 142.343 3.79655 143.142 4.87215C143.972 5.94774 144.556 6.9926 144.894 8.00674L139.408 10.3116C139.224 9.69696 138.917 9.11306 138.486 8.5599C138.056 8.00674 137.503 7.56113 136.827 7.22309C136.151 6.88504 135.336 6.71602 134.384 6.71602C133.492 6.71602 132.693 6.86968 131.987 7.17699C131.28 7.45357 130.727 7.85308 130.327 8.37551C129.928 8.86721 129.728 9.45111 129.728 10.1272C129.728 11.1106 130.143 11.9557 130.972 12.6625C131.833 13.3693 133.2 14.0301 135.075 14.6447L137.149 15.3362C138.317 15.7357 139.424 16.212 140.468 16.7652C141.544 17.2876 142.497 17.9483 143.326 18.7473C144.156 19.5463 144.802 20.499 145.263 21.6053C145.754 22.7117 146 24.0331 146 25.5697C146 27.2599 145.662 28.735 144.986 29.995C144.31 31.255 143.419 32.2845 142.312 33.0835C141.206 33.8825 139.977 34.4818 138.625 34.8813C137.303 35.2808 135.997 35.4805 134.706 35.4805Z" fill="url(#paint0_linear_2796_33947)" fill-opacity="0.9"/>
<path d="M134.291 0.5C136.558 0.5 138.474 0.893082 140.012 1.71094H140.011C141.503 2.4739 142.685 3.42259 143.537 4.56641C144.392 5.67491 145.008 6.76918 145.368 7.84863L145.515 8.28809L145.088 8.46777L139.602 10.7725L139.089 10.9883L138.93 10.4551C138.765 9.90498 138.487 9.37598 138.092 8.86719C137.711 8.37753 137.218 7.97724 136.604 7.66992C136.013 7.37445 135.278 7.21584 134.384 7.21582C133.551 7.21582 132.82 7.35972 132.186 7.63574L132.178 7.63965L132.169 7.64258C131.534 7.89108 131.06 8.24045 130.725 8.67969L130.72 8.68555L130.715 8.69043C130.393 9.08671 130.228 9.55751 130.228 10.127C130.228 10.9444 130.563 11.6543 131.29 12.2764L131.609 12.5186C132.412 13.0831 133.608 13.638 135.23 14.1699H135.233L137.308 14.8613L137.312 14.8633C138.497 15.2689 139.622 15.753 140.687 16.3154L141.102 16.5264C142.055 17.0346 142.913 17.6547 143.673 18.3867C144.551 19.2325 145.233 20.2401 145.719 21.4023H145.72C146.246 22.5872 146.5 23.9812 146.5 25.5693C146.5 27.327 146.148 28.8866 145.427 30.2314C144.717 31.5549 143.776 32.6437 142.605 33.4893C141.452 34.3224 140.171 34.9454 138.767 35.3604L138.766 35.3594C137.402 35.7714 136.048 35.9805 134.706 35.9805C132.767 35.9804 130.933 35.6141 129.209 34.8799L129.206 34.8789C127.508 34.1419 126.02 33.0531 124.744 31.6182L124.736 31.6094C123.488 30.1366 122.552 28.3519 121.92 26.2676L121.786 25.8262L122.215 25.6572L128.069 23.3525L128.593 23.1465L128.736 23.6904C129.147 25.2438 129.86 26.5332 130.87 27.5723C131.838 28.5681 133.116 29.08 134.752 29.0801C135.556 29.0801 136.312 28.9503 137.021 28.6953C137.712 28.417 138.249 28.0234 138.647 27.5186L138.657 27.5068C139.063 27.0246 139.277 26.4206 139.277 25.6621C139.277 24.9153 139.098 24.3113 138.765 23.8242L138.759 23.8145L139.178 23.541L138.759 23.8135C138.421 23.2936 137.822 22.7748 136.909 22.2744L136.9 22.2695L136.893 22.2646C136.009 21.7344 134.781 21.1781 133.198 20.5996V20.6006L131.17 19.8623L131.164 19.8604C130.251 19.5141 129.325 19.0896 128.386 18.5889L128.377 18.585L128.369 18.5791C127.443 18.0363 126.582 17.3829 125.786 16.6191L125.771 16.6045C124.995 15.7961 124.365 14.8746 123.882 13.8428C123.385 12.7832 123.143 11.5872 123.143 10.2656C123.143 8.45495 123.613 6.80922 124.557 5.34277C125.499 3.8483 126.813 2.66813 128.483 1.80078C130.164 0.928132 132.105 0.500057 134.291 0.5Z" stroke="url(#paint1_linear_2796_33947)" stroke-opacity="0.45"/>
<path d="M104.875 35.4852C102.294 35.4852 100.035 34.932 98.0992 33.8257C96.1939 32.7193 94.7034 31.1367 93.6278 29.0777C92.583 26.9879 92.0605 24.4987 92.0605 21.61V1.74219H98.2375V21.9787C98.2375 23.4231 98.4834 24.7292 98.9751 25.897C99.4668 27.034 100.204 27.9406 101.188 28.6167C102.202 29.2621 103.431 29.5847 104.875 29.5847C106.351 29.5847 107.58 29.2621 108.563 28.6167C109.547 27.9406 110.284 27.034 110.776 25.897C111.268 24.7292 111.513 23.4231 111.513 21.9787V1.74219H117.69V21.61C117.69 24.3451 117.168 26.7575 116.123 28.8472C115.078 30.9369 113.603 32.5657 111.698 33.7335C109.793 34.9013 107.518 35.4852 104.875 35.4852Z" fill="url(#paint2_linear_2796_33947)" fill-opacity="0.9"/>
<path d="M98.7373 1.24219V21.9785C98.7373 23.3635 98.9725 24.6011 99.4336 25.6982C99.8882 26.7496 100.565 27.579 101.464 28.1992C102.382 28.781 103.511 29.085 104.876 29.085C106.278 29.0849 107.406 28.7779 108.289 28.1982C109.187 27.5782 109.863 26.7489 110.317 25.6982C110.779 24.6011 111.014 23.3635 111.014 21.9785V1.24219H118.19V21.6104C118.19 24.4095 117.655 26.9004 116.57 29.0703C115.486 31.2397 113.948 32.9412 111.959 34.1602C109.962 35.3841 107.594 35.9853 104.876 35.9854C102.222 35.9854 99.8743 35.4156 97.8516 34.2598L97.8486 34.2578C95.8571 33.1014 94.3014 31.4474 93.1846 29.3096L93.1807 29.3018C92.0939 27.1282 91.5606 24.5586 91.5605 21.6104V1.24219H98.7373Z" stroke="url(#paint3_linear_2796_33947)" stroke-opacity="0.45"/>
<path d="M59.4235 1.74219H67.1217L73.5292 12.5289H73.8979L80.2593 1.74219H88.0036L78.0006 17.5073L88.8333 34.7476H81.0891L73.8979 22.8546H73.5292L66.338 34.7476H58.5938L69.3804 17.5073L59.4235 1.74219Z" fill="url(#paint4_linear_2796_33947)" fill-opacity="0.9"/>
<path d="M67.4062 1.24219L67.5518 1.4873L73.7119 11.8574L79.8291 1.48828L79.9736 1.24219H88.9131L88.4258 2.00977L78.5918 17.5088L89.2568 34.4814L89.7383 35.248H80.8066L80.6611 35.0059L73.7129 23.5156L66.7656 35.0059L66.6201 35.248H57.6914L58.1699 34.4824L68.79 17.5078L59.001 2.00879L58.5166 1.24219H67.4062Z" stroke="url(#paint5_linear_2796_33947)" stroke-opacity="0.45"/>
<path d="M35.168 34.7476V1.74219H56.096V7.6426H41.3911V15.2947H54.6209V21.1951H41.3911V28.8472H56.096V34.7476H35.168Z" fill="url(#paint6_linear_2796_33947)" fill-opacity="0.9"/>
<path d="M56.5957 1.24219V8.14258H41.8906V14.7949H55.1211V21.6953H41.8906V28.3477H56.5957V35.248H34.668V1.24219H56.5957Z" stroke="url(#paint7_linear_2796_33947)" stroke-opacity="0.45"/>
<path d="M1 34.7476V1.74219H8.23722L21.5131 23.8687H21.8819L21.5131 17.5073V1.74219H27.6901V34.7476H21.1444L7.13089 11.3764H6.76212L7.13089 17.7378V34.7476H1Z" fill="url(#paint8_linear_2796_33947)" fill-opacity="0.9"/>
<path d="M7.63086 35.248H0.5V1.24219H8.52051L8.66602 1.48535L21.3037 22.5498L21.0137 17.5361L21.0127 17.5215V1.24219H28.1904V35.248H20.8613L20.7158 35.0049L7.33887 12.6973L7.62988 17.709L7.63086 17.7236V35.248Z" stroke="url(#paint9_linear_2796_33947)" stroke-opacity="0.45"/>
</g>
<defs>
<filter id="filter0_iiii_2796_33947" x="0" y="-4" width="147" height="44.4844" filterUnits="userSpaceOnUse" color-interpolation-filters="sRGB">
<feFlood flood-opacity="0" result="BackgroundImageFix"/>
<feBlend mode="normal" in="SourceGraphic" in2="BackgroundImageFix" result="shape"/>
<feColorMatrix in="SourceAlpha" type="matrix" values="0 0 0 0 0 0 0 0 0 0 0 0 0 0 0 0 0 0 127 0" result="hardAlpha"/>
<feOffset dy="1"/>
<feComposite in2="hardAlpha" operator="arithmetic" k2="-1" k3="1"/>
<feColorMatrix type="matrix" values="0 0 0 0 1 0 0 0 0 1 0 0 0 0 1 0 0 0 0.4 0"/>
<feBlend mode="normal" in2="shape" result="effect1_innerShadow_2796_33947"/>
<feColorMatrix in="SourceAlpha" type="matrix" values="0 0 0 0 0 0 0 0 0 0 0 0 0 0 0 0 0 0 127 0" result="hardAlpha"/>
<feOffset dy="4"/>
<feGaussianBlur stdDeviation="2"/>
<feComposite in2="hardAlpha" operator="arithmetic" k2="-1" k3="1"/>
<feColorMatrix type="matrix" values="0 0 0 0 0 0 0 0 0 0 0 0 0 0 0 0 0 0 0.3 0"/>
<feBlend mode="normal" in2="effect1_innerShadow_2796_33947" result="effect2_innerShadow_2796_33947"/>
<feColorMatrix in="SourceAlpha" type="matrix" values="0 0 0 0 0 0 0 0 0 0 0 0 0 0 0 0 0 0 127 0" result="hardAlpha"/>
<feOffset dy="-4"/>
<feGaussianBlur stdDeviation="2"/>
<feComposite in2="hardAlpha" operator="arithmetic" k2="-1" k3="1"/>
<feColorMatrix type="matrix" values="0 0 0 0 0 0 0 0 0 0 0 0 0 0 0 0 0 0 0.3 0"/>
<feBlend mode="normal" in2="effect2_innerShadow_2796_33947" result="effect3_innerShadow_2796_33947"/>
<feColorMatrix in="SourceAlpha" type="matrix" values="0 0 0 0 0 0 0 0 0 0 0 0 0 0 0 0 0 0 127 0" result="hardAlpha"/>
<feOffset dy="-1"/>
<feGaussianBlur stdDeviation="2"/>
<feComposite in2="hardAlpha" operator="arithmetic" k2="-1" k3="1"/>
<feColorMatrix type="matrix" values="0 0 0 0 1 0 0 0 0 1 0 0 0 0 1 0 0 0 0.4 0"/>
<feBlend mode="normal" in2="effect3_innerShadow_2796_33947" result="effect4_innerShadow_2796_33947"/>
</filter>
<linearGradient id="paint0_linear_2796_33947" x1="-2.73495" y1="18.8971" x2="148.521" y2="18.8971" gradientUnits="userSpaceOnUse">
<stop stop-color="#4285F4"/>
<stop offset="0.35" stop-color="#97AA2A"/>
<stop offset="0.65" stop-color="#F9AB00"/>
<stop offset="1" stop-color="#EA4335"/>
</linearGradient>
<linearGradient id="paint1_linear_2796_33947" x1="122.398" y1="18.2403" x2="146" y2="18.2403" gradientUnits="userSpaceOnUse">
<stop/>
<stop offset="1" stop-color="#414141"/>
</linearGradient>
<linearGradient id="paint2_linear_2796_33947" x1="-2.73205" y1="18.9018" x2="148.524" y2="18.9018" gradientUnits="userSpaceOnUse">
<stop stop-color="#4285F4"/>
<stop offset="0.35" stop-color="#97AA2A"/>
<stop offset="0.65" stop-color="#F9AB00"/>
<stop offset="1" stop-color="#EA4335"/>
</linearGradient>
<linearGradient id="paint3_linear_2796_33947" x1="92.0605" y1="18.6137" x2="117.69" y2="18.6137" gradientUnits="userSpaceOnUse">
<stop/>
<stop offset="1" stop-color="#414141"/>
</linearGradient>
<linearGradient id="paint4_linear_2796_33947" x1="-2.73283" y1="18.9018" x2="148.523" y2="18.9018" gradientUnits="userSpaceOnUse">
<stop stop-color="#4285F4"/>
<stop offset="0.35" stop-color="#97AA2A"/>
<stop offset="0.65" stop-color="#F9AB00"/>
<stop offset="1" stop-color="#EA4335"/>
</linearGradient>
<linearGradient id="paint5_linear_2796_33947" x1="58.5938" y1="18.2449" x2="88.8333" y2="18.2449" gradientUnits="userSpaceOnUse">
<stop/>
<stop offset="1" stop-color="#414141"/>
</linearGradient>
<linearGradient id="paint6_linear_2796_33947" x1="-2.73344" y1="18.9018" x2="148.522" y2="18.9018" gradientUnits="userSpaceOnUse">
<stop stop-color="#4285F4"/>
<stop offset="0.35" stop-color="#97AA2A"/>
<stop offset="0.65" stop-color="#F9AB00"/>
<stop offset="1" stop-color="#EA4335"/>
</linearGradient>
<linearGradient id="paint7_linear_2796_33947" x1="35.168" y1="18.2449" x2="56.096" y2="18.2449" gradientUnits="userSpaceOnUse">
<stop/>
<stop offset="1" stop-color="#414141"/>
</linearGradient>
<linearGradient id="paint8_linear_2796_33947" x1="-2.73385" y1="18.9018" x2="148.522" y2="18.9018" gradientUnits="userSpaceOnUse">
<stop stop-color="#4285F4"/>
<stop offset="0.35" stop-color="#97AA2A"/>
<stop offset="0.65" stop-color="#F9AB00"/>
<stop offset="1" stop-color="#EA4335"/>
</linearGradient>
<linearGradient id="paint9_linear_2796_33947" x1="1" y1="18.2449" x2="27.6901" y2="18.2449" gradientUnits="userSpaceOnUse">
<stop/>
<stop offset="1" stop-color="#414141"/>
</linearGradient>
</defs>
</svg>
